<?xml version="1.0" encoding="utf-8"?>
<!-- Generator: Adobe Illustrator 12.0.1, SVG Export Plug-In . SVG Version: 6.00 Build 51448)  -->
<!DOCTYPE svg PUBLIC "-//W3C//DTD SVG 1.1//EN" "http://www.w3.org/Graphics/SVG/1.1/DTD/svg11.dtd" [
	<!ENTITY ns_svg "http://www.w3.org/2000/svg">
	<!ENTITY ns_xlink "http://www.w3.org/1999/xlink">
]>
<svg  version="1.1" id="Layer_1" xmlns="&ns_svg;" xmlns:xlink="&ns_xlink;" width="804.22" height="203.146"
	 viewBox="0 0 804.22 203.146" overflow="visible" enable-background="new 0 0 804.22 203.146" xml:space="preserve">
<rect x="202.22" y="101.146" fill="#FFFFFF" stroke="#000000" stroke-width="4" width="100" height="100"/>
<text transform="matrix(1 0 0 1 236.8301 168.7554)" font-family="'Myriad-Roman'" font-size="60">0</text>
<g id="XMLID_1_">
	<g>
	</g>
	<g>
		<rect x="3" y="101" fill="none" stroke="#000000" stroke-width="4" width="100" height="100"/>
	</g>
</g>
<text transform="matrix(1 0 0 1 36.6104 168.6089)" font-family="'Myriad-Roman'" font-size="60">1</text>
<rect x="702.22" y="101" fill="#6FCCDD" stroke="#000000" stroke-width="4" width="100" height="99.999"/>
<text transform="matrix(1 0 0 1 736.8301 168.6089)" font-family="'Myriad-Roman'" font-size="60">0</text>
<rect x="602.22" y="101.146" fill="#FFFFFF" stroke="#000000" stroke-width="4" width="100" height="100"/>
<text transform="matrix(1 0 0 1 636.8301 168.7554)" font-family="'Myriad-Roman'" font-size="60">1</text>
<rect x="301.995" y="101" fill="#FFFFFF" stroke="#000000" stroke-width="4" width="100" height="100"/>
<text transform="matrix(1 0 0 1 336.6055 168.6089)" font-family="'Myriad-Roman'" font-size="60">1</text>
<rect x="502.472" y="100.999" fill="#FFFFFF" stroke="#000000" stroke-width="4" width="100" height="100"/>
<text transform="matrix(1 0 0 1 537.082 168.6089)" font-family="'Myriad-Roman'" font-size="60">1</text>
<rect x="102" y="101" fill="#FFFFFF" stroke="#000000" stroke-width="4" width="100" height="100"/>
<text transform="matrix(1 0 0 1 136.6104 168.6089)" font-family="'Myriad-Roman'" font-size="60">0</text>
<rect x="402.22" y="101" fill="#FFFFFF" stroke="#000000" stroke-width="4" width="100" height="100"/>
<text transform="matrix(1 0 0 1 436.8301 168.6089)" font-family="'Myriad-Roman'" font-size="60">0</text>
<text transform="matrix(1 0 0 1 36.6104 68.6094)" font-family="'Myriad-Roman'" font-size="60">7</text>
<path fill="none" d="M92.366,88.98"/>
<line fill="none" stroke="#000000" stroke-width="4" x1="2" y1="200" x2="2" y2="0"/>
<text transform="matrix(1 0 0 1 736.6104 68.6084)" font-family="'Myriad-Roman'" font-size="60">0</text>
<line fill="none" stroke="#000000" stroke-width="4" x1="802" y1="201" x2="802" y2="1"/>
</svg>
