<?xml version="1.0" encoding="UTF-8" standalone="no"?>
<!-- Created with Inkscape (http://www.inkscape.org/) -->

<svg
   width="46.050945mm"
   height="16.830008mm"
   viewBox="0 0 46.050945 16.830008"
   version="1.1"
   id="svg5"
   inkscape:export-filename="C:\Users\mkobrow\Nextcloud\Documents\Uni\10. Semester\Stexarbeit\praxis\bitWriteGIF\3.png"
   inkscape:export-xdpi="600"
   inkscape:export-ydpi="600"
   inkscape:version="1.1.1 (3bf5ae0d25, 2021-09-20)"
   sodipodi:docname="Zeichnung.svg"
   xmlns:inkscape="http://www.inkscape.org/namespaces/inkscape"
   xmlns:sodipodi="http://sodipodi.sourceforge.net/DTD/sodipodi-0.dtd"
   xmlns="http://www.w3.org/2000/svg"
   xmlns:svg="http://www.w3.org/2000/svg">
  <sodipodi:namedview
     id="namedview7"
     pagecolor="#505050"
     bordercolor="#eeeeee"
     borderopacity="1"
     inkscape:pageshadow="0"
     inkscape:pageopacity="0"
     inkscape:pagecheckerboard="0"
     inkscape:document-units="mm"
     showgrid="false"
     showguides="false"
     inkscape:guide-bbox="true"
     fit-margin-top="0"
     fit-margin-left="0"
     fit-margin-right="0"
     fit-margin-bottom="0"
     inkscape:zoom="4.3994184"
     inkscape:cx="82.397255"
     inkscape:cy="35.800187"
     inkscape:window-width="1920"
     inkscape:window-height="1009"
     inkscape:window-x="0"
     inkscape:window-y="1192"
     inkscape:window-maximized="1"
     inkscape:current-layer="layer1">
    <sodipodi:guide
       position="23.033821,8.650907"
       orientation="1,0"
       id="guide27705" />
    <sodipodi:guide
       position="-0.085051546,6.156047"
       orientation="0,-1"
       id="guide27822" />
    <sodipodi:guide
       position="9.5180477e-10,14.150887"
       orientation="1,0"
       id="guide27824" />
  </sodipodi:namedview>
  <defs
     id="defs2" />
  <g
     inkscape:label="Ebene 1"
     inkscape:groupmode="layer"
     id="layer1"
     style="display:inline">
    <text
       xml:space="preserve"
       style="font-size:7.05556px;line-height:1.25;font-family:'Source Code Pro';-inkscape-font-specification:'Source Code Pro';stroke-width:0.264583"
       x="0.88294756"
       y="9.9341955"
       id="text17032"><tspan
         sodipodi:role="line"
         id="tspan17030"
         style="font-size:7.05556px;stroke-width:0.264583"
         x="0.88294756"
         y="9.9341955">0</tspan></text>
    <text
       xml:space="preserve"
       style="font-size:7.05556px;line-height:1.25;font-family:'Source Code Pro';-inkscape-font-specification:'Source Code Pro';fill:#000000;stroke-width:0.264583"
       x="6.6044078"
       y="9.9341936"
       id="text17032-7"><tspan
         sodipodi:role="line"
         style="font-size:7.05556px;fill:#000000;stroke-width:0.264583"
         x="6.6044078"
         y="9.9341936"
         id="tspan72011">0</tspan></text>
    <text
       xml:space="preserve"
       style="font-size:7.05556px;line-height:1.25;font-family:'Source Code Pro';-inkscape-font-specification:'Source Code Pro';stroke-width:0.264583;fill:#ff0000"
       x="12.325867"
       y="9.9341955"
       id="text17032-3"><tspan
         sodipodi:role="line"
         id="tspan17030-23"
         style="font-size:7.05556px;stroke-width:0.264583;fill:#ff0000"
         x="12.325867"
         y="9.9341955">1</tspan></text>
    <text
       xml:space="preserve"
       style="font-size:7.05556px;line-height:1.25;font-family:'Source Code Pro';-inkscape-font-specification:'Source Code Pro';stroke-width:0.264583"
       x="18.047321"
       y="9.9341955"
       id="text17032-5"><tspan
         sodipodi:role="line"
         id="tspan17030-3"
         style="font-size:7.05556px;stroke-width:0.264583"
         x="18.047321"
         y="9.9341955">0</tspan></text>
    <text
       xml:space="preserve"
       style="font-size:7.05556px;line-height:1.25;font-family:'Source Code Pro';-inkscape-font-specification:'Source Code Pro';stroke-width:0.264583"
       x="23.76878"
       y="9.9341936"
       id="text17032-6"><tspan
         sodipodi:role="line"
         id="tspan17030-0"
         style="font-size:7.05556px;stroke-width:0.264583"
         x="23.76878"
         y="9.9341936">0</tspan></text>
    <text
       xml:space="preserve"
       style="font-size:7.05556px;line-height:1.25;font-family:'Source Code Pro';-inkscape-font-specification:'Source Code Pro';stroke-width:0.264583"
       x="29.490242"
       y="9.9341936"
       id="text17032-1"><tspan
         sodipodi:role="line"
         id="tspan17030-9"
         style="font-size:7.05556px;stroke-width:0.264583"
         x="29.490242"
         y="9.9341936">0</tspan></text>
    <text
       xml:space="preserve"
       style="font-size:7.05556px;line-height:1.25;font-family:'Source Code Pro';-inkscape-font-specification:'Source Code Pro';stroke-width:0.264583"
       x="35.2117"
       y="9.9341955"
       id="text17032-9"><tspan
         sodipodi:role="line"
         id="tspan17030-4"
         style="font-size:7.05556px;stroke-width:0.264583"
         x="35.2117"
         y="9.9341955">0</tspan></text>
    <text
       xml:space="preserve"
       style="font-size:7.05556px;line-height:1.25;font-family:'Source Code Pro';-inkscape-font-specification:'Source Code Pro';stroke-width:0.264583;fill:#000000"
       x="40.933159"
       y="9.9341955"
       id="text17032-4"><tspan
         sodipodi:role="line"
         id="tspan17030-1"
         style="font-size:7.05556px;stroke-width:0.264583;fill:#000000"
         x="40.933159"
         y="9.9341955">1</tspan></text>
    <text
       xml:space="preserve"
       style="font-size:4.23333px;line-height:1.25;font-family:'Source Code Pro';-inkscape-font-specification:'Source Code Pro';stroke-width:0.264583"
       x="-0.33866632"
       y="3.0141308"
       id="text24868"
       inkscape:export-filename="C:\Users\mkobrow\Nextcloud\Documents\Uni\10. Semester\Stexarbeit\praxis\bitWriteGIF\3.png"
       inkscape:export-xdpi="600"
       inkscape:export-ydpi="600"><tspan
         sodipodi:role="line"
         id="tspan24866"
         style="stroke-width:0.264583"
         x="-0.33866632"
         y="3.0141308">bitWrite(c, 5, 1);</tspan></text>
    <path
       id="path28255"
       style="color:#000000;fill:#000000;stroke-width:0.996526;-inkscape-stroke:none"
       d="m 0,10.673767 c 0,0.234673 0.11518384,0.444243 0.30270583,0.609406 0.187522,0.165163 0.44711709,0.295617 0.76959107,0.406271 0.6449481,0.221306 1.5444933,0.362191 2.6217405,0.451756 2.1544944,0.179128 5.0159502,0.152618 7.8749686,0.113197 2.859019,-0.03942 5.716136,-0.09229 7.851369,0.02895 1.067616,0.06062 1.95556,0.165027 2.563252,0.332357 0.303844,0.08367 0.536546,0.18372 0.682882,0.291005 0.146336,0.107285 0.335243,0.203411 0.335243,0.320844 v 0 c 0,-0.117433 0.187444,-0.213559 0.333789,-0.320844 0.146336,-0.107285 0.378525,-0.207342 0.682371,-0.291005 0.607689,-0.16733 1.496147,-0.271737 2.563763,-0.332357 2.135234,-0.121239 4.99235,-0.06837 7.851368,-0.02895 2.85902,0.03942 5.718425,0.06593 7.872919,-0.113197 1.077246,-0.08956 1.978843,-0.23045 2.623793,-0.451756 0.322474,-0.110654 0.582069,-0.241108 0.769592,-0.406271 C 45.886868,11.11801 46,10.90844 46,10.673767 h -0.261663 c 0,0.152693 -0.06393,0.28052 -0.211378,0.410406 -0.14747,0.129886 -0.380044,0.251699 -0.682885,0.355616 -0.605686,0.207834 -1.492966,0.348597 -2.55966,0.437283 -2.133389,0.177374 -4.989103,0.153123 -7.847264,0.113714 -2.85816,-0.03941 -5.718213,-0.09328 -7.870865,0.02895 -1.076326,0.06111 -1.975207,0.165141 -2.618149,0.342177 -0.321472,0.08852 -0.579397,0.193529 -0.768053,0.33184 -0.07001,0.05132 -0.130305,0.109303 -0.179057,0.172639 -0.04875,-0.06334 -0.109568,-0.121315 -0.179572,-0.172639 C 22.6328,12.555442 22.373335,12.45043 22.051863,12.361913 21.40892,12.184877 20.510041,12.08085 19.433714,12.019736 17.281064,11.897508 14.423062,11.951376 11.564902,11.990786 8.7067418,12.030196 5.8489759,12.054446 3.7155859,11.877072 2.6488908,11.788386 1.76315,11.647623 1.1574651,11.439789 0.85462258,11.335872 0.62256323,11.214059 0.47509424,11.084173 0.32762525,10.954287 0.26371322,10.82646 0.26371322,10.673767 Z"
       sodipodi:nodetypes="cssssscsccssssssscccsssssccssssssscc" />
    <text
       xml:space="preserve"
       style="font-size:4.23333px;line-height:1.25;font-family:'Source Code Pro';-inkscape-font-specification:'Source Code Pro';stroke-width:0.264583"
       x="21.730001"
       y="16.779207"
       id="text30585"><tspan
         sodipodi:role="line"
         id="tspan30583"
         style="stroke-width:0.264583"
         x="21.730001"
         y="16.779207">!</tspan></text>
  </g>
  <g
     inkscape:groupmode="layer"
     id="layer2"
     inkscape:label="grid"
     style="display:inline">
    <path
       id="rect10372"
       style="color:#000000;display:inline;fill:#333333;fill-opacity:0.995585;stroke-width:1;stroke-linecap:round;stroke-linejoin:round;-inkscape-stroke:none"
       d="M 0.13849856,4.6832192 A 0.13928443,0.13928443 0 0 0 5.8603424e-6,4.8237792 V 10.54436 A 0.13928443,0.13928443 0 0 0 0.13849856,10.682853 h 5.72264824 5.7205812 5.721098 5.722647 5.720582 5.72058 5.722649 5.72058 A 0.13928443,0.13928443 0 0 0 46.05094,10.54436 V 4.8237792 a 0.13928443,0.13928443 0 0 0 -0.141076,-0.14056 h -5.72058 -5.722649 -5.72058 -5.720582 -5.722647 -5.721098 -5.7205812 z m 0.13849297,0.279053 H 5.7205869 V 10.405867 H 0.27699153 Z m 5.72316467,0 H 11.443235 V 10.405867 H 6.0001562 Z m 5.7205808,0 h 5.44308 v 5.4435948 h -5.44308 z m 5.722649,0 h 5.441527 v 5.4435948 h -5.441527 z m 5.72058,0 h 5.443596 v 5.4435948 h -5.443596 z m 5.72058,0 h 5.443596 v 5.4435948 h -5.443596 z m 5.722649,0 h 5.443596 v 5.4435948 h -5.443596 z m 5.72058,0 h 5.443596 v 5.4435948 h -5.443596 z" />
  </g>
</svg>
