<?xml version="1.0" encoding="UTF-8" standalone="no"?>
<svg
   version="1.1"
   id="Layer_1"
   x="0px"
   y="0px"
   width="0.22134072in"
   height="0.76247996in"
   viewBox="0 0 22.134071 76.247998"
   sodipodi:docname="LED-5mm-red-leg.svg"
   inkscape:version="1.1.1 (3bf5ae0d25, 2021-09-20)"
   xmlns:inkscape="http://www.inkscape.org/namespaces/inkscape"
   xmlns:sodipodi="http://sodipodi.sourceforge.net/DTD/sodipodi-0.dtd"
   xmlns="http://www.w3.org/2000/svg"
   xmlns:svg="http://www.w3.org/2000/svg">
  <defs
     id="defs28" />
  <sodipodi:namedview
     id="namedview26"
     pagecolor="#505050"
     bordercolor="#eeeeee"
     borderopacity="1"
     inkscape:pageshadow="0"
     inkscape:pageopacity="0"
     inkscape:pagecheckerboard="0"
     inkscape:document-units="in"
     showgrid="false"
     fit-margin-top="0"
     fit-margin-left="0"
     fit-margin-right="0"
     fit-margin-bottom="0"
     inkscape:zoom="5.6554883"
     inkscape:cx="7.3380048"
     inkscape:cy="41.994606"
     inkscape:window-width="1920"
     inkscape:window-height="1009"
     inkscape:window-x="-8"
     inkscape:window-y="1192"
     inkscape:window-maximized="1"
     inkscape:current-layer="Layer_1" />
  <g
     id="breadboard">
    <rect
       id="connector0pin"
       x="4.7930002"
       y="35.306999"
       fill="none"
       width="2.9890001"
       height="1" />
    <rect
       id="connector1pin"
       x="14.793"
       y="35.306999"
       fill="none"
       width="2.9920001"
       height="1" />
    <line
       id="connector0leg"
       stroke-linecap="round"
       x1="6.2870002"
       y1="40.564999"
       x2="6.2870002"
       y2="74.753998"
       stroke="#8c8c8c"
       fill="none"
       stroke-width="2.988" />
    <line
       id="connector1leg"
       stroke-linecap="round"
       x1="16.290001"
       y1="40.564999"
       x2="16.290001"
       y2="74.753998"
       stroke="#8c8c8c"
       fill="none"
       stroke-width="2.988" />
    <rect
       x="4.7930002"
       y="26.916"
       fill="#8c8c8c"
       width="2.9879999"
       height="13.649"
       id="rect6" />
    <path
       fill="#8c8c8c"
       d="m 17.784,40.565 c 0,-1.63 -1.479,-2.92 -2.9,-4.155 -0.578,-0.51 -1.666,-1.391 -1.666,-1.979 v -7.598 h -3.002 v 8.028 c 0,1.47 1.316,2.609 2.703,3.817 0.617,0.522 1.873,1.736 1.873,2.458"
       id="path8" />
    <g
       id="g12">
      <path
         id="color_path14"
         opacity="0.3"
         fill="#e60000"
         d="M 19.685,18.057 V 9.845 C 19.685,4.41 15.285,0 9.844,0 4.41,0 0,4.402 0,9.845 v 18.957 c 2.047,2.293 5.69,3.823 9.844,3.823 6.416,0 11.623,-3.636 11.623,-8.138 V 22.371 C 21.466,20.784 20.808,19.31 19.685,18.057 Z" />
      <path
         id="path16"
         opacity="0.5"
         fill="#e6e6e6"
         d="M 19.685,18.057 V 9.845 C 19.685,4.41 15.285,0 9.844,0 4.41,0 0,4.402 0,9.845 v 18.957 c 2.047,2.293 5.69,3.823 9.844,3.823 6.416,0 11.623,-3.636 11.623,-8.138 V 22.371 C 21.466,20.784 20.808,19.31 19.685,18.057 Z" />
      <path
         id="path18"
         opacity="0.9"
         fill="#d1d1d1"
         d="m 19.685,18.057 v 4.313 c 0,3.804 -4.397,6.896 -9.841,6.896 C 4.41,29.266 0,26.184 0,22.37 v 4.313 2.117 c 2.047,2.294 5.69,3.823 9.844,3.823 6.416,0 11.623,-3.636 11.623,-8.137 V 22.37 c -10e-4,-1.586 -0.659,-3.06 -1.782,-4.313 z" />
      <path
         id="color_path20"
         opacity="0.7"
         fill="#e60000"
         d="m 19.685,18.057 v 4.313 c 0,3.804 -4.397,6.896 -9.841,6.896 C 4.41,29.266 0,26.184 0,22.37 v 4.313 2.117 c 2.047,2.294 5.69,3.823 9.844,3.823 6.416,0 11.623,-3.636 11.623,-8.137 V 22.37 c -10e-4,-1.586 -0.659,-3.06 -1.782,-4.313 z" />
      <path
         id="color_path22"
         opacity="0.25"
         fill="#e60000"
         d="m 19.685,18.057 v 4.313 c 0,3.804 -4.397,6.896 -9.841,6.896 C 4.41,29.266 0,26.184 0,22.37 v 4.313 c 2.047,2.292 5.69,3.823 9.844,3.823 6.416,0 11.623,-3.636 11.623,-8.137 -10e-4,-1.585 -0.659,-3.059 -1.782,-4.312 z" />
      <ellipse
         id="ellipse24"
         opacity="0.25"
         fill="#e6e6e6"
         cx="9.8439999"
         cy="22.370001"
         rx="9.8430004"
         ry="6.8899999" />
      <ellipse
         id="color_ellipse26"
         opacity="0.25"
         fill="#e60000"
         cx="9.8439999"
         cy="22.370001"
         rx="9.8430004"
         ry="6.8899999" />
      <polygon
         id="polygon28"
         fill="#666666"
         points="8.355,18.187 13.906,12.229 4.732,12.229 3.06,13.4 3.06,22.371 4.439,22.371 4.439,18.187 " />
      <polygon
         id="polygon30"
         fill="#666666"
         points="15.361,22.371 16.63,22.371 16.63,11.839 14.97,11.839 15.576,12.547 10.294,18.187 15.361,18.187 " />
      <path
         id="color_path32"
         opacity="0.65"
         fill="#e60000"
         d="M 19.685,18.057 V 9.845 C 19.685,4.41 15.285,0 9.844,0 4.41,0 0,4.402 0,9.845 v 18.957 c 2.047,2.293 5.69,3.823 9.844,3.823 6.416,0 11.623,-3.636 11.623,-8.138 V 22.371 C 21.466,20.784 20.808,19.31 19.685,18.057 Z" />
      <path
         id="path34"
         opacity="0.5"
         fill="#ffffff"
         d="m 14.428,5.214 1.995,-0.38 C 15.254,3.262 13.531,2.115 11.504,1.725 l 0.353,1.501 c 1.061,0.376 1.954,1.084 2.571,1.988 z" />
      <path
         id="path36"
         opacity="0.5"
         fill="#ffffff"
         d="m 1.067,27.675 v 2.111 c 0.901,0.735 1.991,1.356 3.205,1.829 V 29.497 C 3.052,29.03 1.971,28.411 1.067,27.675 Z" />
      <path
         id="path38"
         opacity="0.5"
         fill="#ffffff"
         d="m 15.379,28.069 c -0.355,0.17 -0.736,0.319 -1.119,0.458 -0.081,0.027 -0.163,0.056 -0.247,0.081 -0.783,0.249 -1.613,0.443 -2.493,0.548 -0.104,0.013 -0.21,0.026 -0.312,0.027 -0.445,0.042 -0.894,0.081 -1.348,0.081 -0.206,0 -0.427,-0.021 -0.655,-0.033 C 7.538,29.152 5.968,28.794 4.625,28.204 V 16.552 9.85 c 0,-2.043 1.178,-3.791 2.88,-4.652 L 7.474,5.124 5.741,3.024 C 3.422,4.417 1.866,6.944 1.866,9.846 V 26.381 C 1.797,26.312 1.438,25.952 1.199,25.645 L 0.772,26.6 c 1.946,2.058 5.29,3.419 9.087,3.419 2.333,0 4.496,-0.519 6.266,-1.392 l -0.732,-0.568 c -0.014,0.01 -0.014,0.01 -0.014,0.01 z" />
    </g>
  </g>
  <text
     xml:space="preserve"
     style="font-size:5.55556px;line-height:1.25;font-family:sans-serif;stroke-width:1.04167"
     x="-74.765396"
     y="4.511291"
     id="text2845"
     transform="rotate(-90)"><tspan
       sodipodi:role="line"
       id="tspan2843"
       style="font-size:5.55556px;stroke-width:1.04167"
       x="-74.765396"
       y="4.511291">⊖ Kathode</tspan></text>
  <text
     xml:space="preserve"
     style="font-size:5.55556px;line-height:1.25;font-family:sans-serif;stroke-width:1.04167"
     x="-74.765396"
     y="22.055405"
     id="text2845-0"
     transform="rotate(-90)"><tspan
       sodipodi:role="line"
       id="tspan2843-4"
       style="font-size:5.55556px;stroke-width:1.04167"
       x="-74.765396"
       y="22.055405">⊕ Anode</tspan></text>
</svg>
