<?xml version="1.0" encoding="UTF-8" standalone="no"?>
<!-- Generator: Adobe Illustrator 25.2.1, SVG Export Plug-In . SVG Version: 6.00 Build 0)  -->

<svg
   width="24px"
   height="24px"
   version="1.1"
   id="Layer_1"
   x="0px"
   y="0px"
   viewBox="0 0 74.4 74.4"
   style="enable-background:new 0 0 74.4 74.4;"
   xml:space="preserve"
   preserveAspectRatio="xMinYMid meet"
   sodipodi:docname="glossar_icon.svg"
   inkscape:version="1.1.1 (3bf5ae0d25, 2021-09-20)"
   xmlns:inkscape="http://www.inkscape.org/namespaces/inkscape"
   xmlns:sodipodi="http://sodipodi.sourceforge.net/DTD/sodipodi-0.dtd"
   xmlns="http://www.w3.org/2000/svg"
   xmlns:svg="http://www.w3.org/2000/svg"><defs
   id="defs7" /><sodipodi:namedview
   id="namedview5"
   pagecolor="#505050"
   bordercolor="#eeeeee"
   borderopacity="1"
   inkscape:pageshadow="0"
   inkscape:pageopacity="0"
   inkscape:pagecheckerboard="0"
   showgrid="false"
   inkscape:zoom="34.333333"
   inkscape:cx="12.014563"
   inkscape:cy="12.014563"
   inkscape:window-width="1920"
   inkscape:window-height="1009"
   inkscape:window-x="1912"
   inkscape:window-y="-8"
   inkscape:window-maximized="1"
   inkscape:current-layer="Layer_1" />
<path
   d="M67.7,67.9V6.6c0-0.8-0.4-1.5-1.3-2l-8.7-4.4C57.4,0.1,57,0,56.7,0H8.8C7.5,0.1,6.6,1,6.6,2.2v70c-0.1,1,0.8,2.1,2.2,2.2  h47.9c0.3,0,0.7-0.1,1-0.2l8.7-4.4C67.3,69.4,67.7,68.7,67.7,67.9z M62.5,66l-4.4,2.2V57.7l4.4-2.2V66z M62.5,49.6l-4.4,2.2V41.3  l4.4-2.2V49.6z M62.5,33.5l-4.4,2.2V25.2l4.4-2.2V33.5z M61.4,17.7l-7.2,3c-0.7,0.5-1.3,1.2-1.3,2v46.4h-41V5.2h43.5L61.3,8  L61.4,17.7z"
   id="path2"
   style="fill:#93a1a1;fill-opacity:1" />
</svg>
